<?xml version="1.0" encoding="UTF-8" standalone="no"?>
<!DOCTYPE svg PUBLIC "-//W3C//DTD SVG 1.1//EN"
"http://www.w3.org/Graphics/SVG/1.1/DTD/svg11.dtd">


<!-- Page 1 -->
<svg x="0" y="0" width="635" height="490" version="1.1" xmlns="http://www.w3.org/2000/svg" xmlns:xlink="http://www.w3.org/1999/xlink"
style="display: block;margin-left: auto;margin-right: auto;">
<defs>
<clipPath id="c0_1"><path d="M0.5,490.5l0,-490l635,0l0,490Z" /></clipPath>

<style type="text/css"><![CDATA[

.g1_1{
fill: #FFFFFF;
}
.g2_1{
fill: none;
stroke: #000000;
stroke-width: 4;
stroke-linecap: round;
stroke-linejoin: round;
}

.s1_1{
font-size: 24.44px;
font-family: BZZBFP-Courier1;
fill: #000000;
}
.s2_1{
font-size: 24.44px;
font-family: BZZBFP-Courier1;
fill: #992727;
}
.s4_1{
font-size: 24.44px;
font-family: BZZBFP-Courier1;
fill: #8C7C22;
}
.s3_1{
font-size: 24.44px;
font-family: BZZBFP-Courier1;
fill: #1D5AAB;
}

]]></style>

</defs>
<path d="M0,0
L0,490
L635,490
L635,0 Z " 
fill="#FFFFFF" stroke="none" />
<g clip-path="url(#c0_1)">
<path d="M-288,-175l1195,0l0,822l-1195,0Z" class="g1_1" />
</g>
<text 
x="172" 
y="417" 
textLength="29" 
class="s1_1"
>na</text>

<text 
x="136" 
y="416" 
textLength="14" 
class="s1_1"
>.</text>

<text 
x="223" 
y="416" 
textLength="14" 
class="s1_1"
>.</text>

<text 
x="310" 
y="417" 
textLength="14" 
class="s1_1"
>.</text>

<text 
x="396" 
y="416" 
textLength="14" 
class="s1_1"
>.</text>

<text 
x="483" 
y="416" 
textLength="14" 
class="s1_1"
>.</text>

<text 
x="165" 
y="158" 
textLength="44" 
class="s1_1"
>man</text>

<text 
x="86" 
y="158" 
textLength="29" 
class="s1_1"
>la</text>

<text 
x="259" 
y="157" 
textLength="29" 
class="s1_1"
>da</text>

<text 
x="346" 
y="158" 
textLength="29" 
class="s2_1"
>ri</text>

<text 
x="432" 
y="158" 
textLength="29" 
class="s3_1"
>na</text>

<text 
x="352" 
y="114" 
textLength="14" 
class="s2_1"
>H</text>

<text 
x="310" 
y="114" 
textLength="14" 
class="s2_1"
>L</text>

<text 
x="475" 
y="114" 
textLength="29" 
class="s3_1"
>L%</text>

<path d="M57.7,62.5l259.8,0L361.9,19.2L490.8,84.1" class="g2_1" />
<text 
x="482" 
y="374" 
textLength="14" 
class="s2_1"
>L</text>

<text 
x="396" 
y="374" 
textLength="14" 
class="s2_1"
>H</text>

<text 
x="561" 
y="374" 
textLength="29" 
class="s3_1"
>L%</text>

<path d="M57.7,322.3L166,279l238.2,0l86.6,43.3L575.2,344" class="g2_1" />
<text 
x="49" 
y="374" 
textLength="14" 
class="s4_1"
>L</text>

<text 
x="158" 
y="374" 
textLength="14" 
class="s4_1"
>H</text>

<text 
x="252" 
y="417" 
textLength="44" 
class="s1_1"
>man</text>

<text 
x="346" 
y="417" 
textLength="29" 
class="s1_1"
>da</text>

<text 
x="432" 
y="417" 
textLength="29" 
class="s2_1"
>ri</text>

<text 
x="519" 
y="417" 
textLength="29" 
class="s3_1"
>na</text>

<text 
x="93" 
y="417" 
textLength="14" 
class="s4_1"
>u</text>

<text 
x="440" 
y="461" 
textLength="14" 
class="s1_1"
>*</text>

<text 
x="93" 
y="461" 
textLength="14" 
class="s1_1"
>*</text>

<text 
x="353" 
y="201" 
textLength="14" 
class="s1_1"
>*</text>

<text 
x="50" 
y="417" 
textLength="14" 
class="s1_1"
>{</text>

<text 
x="483" 
y="158" 
textLength="14" 
class="s1_1"
>}</text>

<text 
x="50" 
y="158" 
textLength="14" 
class="s1_1"
>{</text>

<text 
x="570" 
y="417" 
textLength="14" 
class="s1_1"
>}</text>

<text 
x="136" 
y="158" 
textLength="14" 
class="s1_1"
>.</text>

<text 
x="223" 
y="158" 
textLength="14" 
class="s1_1"
>.</text>

<text 
x="310" 
y="158" 
textLength="14" 
class="s1_1"
>.</text>

<text 
x="396" 
y="158" 
textLength="14" 
class="s1_1"
>.</text>


<path d="M0,490
L0,0
L635,0
L635,490 z "
fill="none"
stroke-width="1.0"
stroke-linecap="butt"
stroke-linejoin="miter"
stroke="#000000" />

<!-- Any embedded fonts defined here -->
<style type="text/css" ><![CDATA[

@font-face {
	font-family: BZZBFP-Courier1;
	src :url("1/fonts/BZZBFP-Courier.woff") format("woff");
}

]]></style>

<title>ejemplo Page1</title>
</svg>
